<svg width="126" height="44" viewBox="0 0 126 44" fill="none" xmlns="http://www.w3.org/2000/svg">
<path d="M22 0C9.856 0 0 9.856 0 22C0 34.144 9.856 44 22 44C34.144 44 44 34.144 44 22C44 9.856 34.1147 0 22 0Z" fill="black"/>
<path d="M26.1859 23.8077H21.8513L29.6654 31.4808H34L30.2846 27.8462C31.641 26.0865 32.4667 23.8942 32.4667 21.5C32.4667 15.7019 27.6603 11 21.7333 11C15.8064 11 11 15.7019 11 21.5C11 27.2981 15.8064 32 21.7333 32C23.6205 32 25.4192 31.5096 26.9526 30.6731L24.1808 27.9904C23.4141 28.2788 22.5885 28.4231 21.7038 28.4231C17.8115 28.4231 14.6269 25.3077 14.6269 21.5C14.6269 17.6923 17.8115 14.5769 21.7038 14.5769C25.5962 14.5769 28.7808 17.6923 28.7808 21.5C28.7808 22.8846 28.3679 24.1827 27.6308 25.2788L26.1859 23.8077Z" fill="white"/>
<path d="M63.8878 30.128L61.8718 27.936C61.3812 28.064 60.8692 28.128 60.3358 28.128C59.2798 28.128 58.3252 27.8827 57.4718 27.392C56.6292 26.8907 55.9625 26.2027 55.4718 25.328C54.9812 24.4427 54.7358 23.4454 54.7358 22.336C54.7358 21.2267 54.9812 20.2347 55.4718 19.36C55.9625 18.4747 56.6292 17.7867 57.4718 17.296C58.3252 16.8054 59.2798 16.56 60.3358 16.56C61.3812 16.56 62.3252 16.8054 63.1678 17.296C64.0212 17.7867 64.6878 18.4747 65.1678 19.36C65.6585 20.2347 65.9038 21.2267 65.9038 22.336C65.9038 23.4027 65.6745 24.368 65.2158 25.232C64.7572 26.096 64.1332 26.7787 63.3438 27.28L66.1438 30.128H63.8878ZM56.6078 22.336C56.6078 23.1574 56.7625 23.8774 57.0718 24.496C57.3918 25.1147 57.8345 25.5894 58.3998 25.92C58.9652 26.2507 59.6105 26.416 60.3358 26.416C61.0505 26.416 61.6852 26.2507 62.2398 25.92C62.8052 25.5894 63.2425 25.1147 63.5518 24.496C63.8718 23.8774 64.0318 23.1574 64.0318 22.336C64.0318 21.5147 63.8718 20.7947 63.5518 20.176C63.2425 19.5574 62.8052 19.0827 62.2398 18.752C61.6852 18.4214 61.0505 18.256 60.3358 18.256C59.6105 18.256 58.9652 18.4214 58.3998 18.752C57.8345 19.0827 57.3918 19.5574 57.0718 20.176C56.7625 20.7947 56.6078 21.5147 56.6078 22.336Z" fill="black"/>
<path d="M71.7765 19.072C72.6298 19.072 73.3978 19.2534 74.0805 19.616C74.7631 19.9787 75.2965 20.5014 75.6805 21.184C76.0645 21.8667 76.2565 22.6667 76.2565 23.584C76.2565 24.512 76.0645 25.3174 75.6805 26C75.2965 26.6827 74.7631 27.2054 74.0805 27.568C73.3978 27.9307 72.6298 28.112 71.7765 28.112C70.9231 28.112 70.1551 27.9307 69.4725 27.568C68.8005 27.2054 68.2671 26.6827 67.8725 26C67.4885 25.3067 67.2965 24.5014 67.2965 23.584C67.2965 22.6667 67.4885 21.8667 67.8725 21.184C68.2671 20.5014 68.8005 19.9787 69.4725 19.616C70.1551 19.2534 70.9231 19.072 71.7765 19.072ZM71.7765 20.656C71.3071 20.656 70.8751 20.7627 70.4805 20.976C70.0858 21.1894 69.7658 21.52 69.5205 21.968C69.2858 22.4054 69.1685 22.944 69.1685 23.584C69.1685 24.2347 69.2858 24.7787 69.5205 25.216C69.7658 25.6534 70.0858 25.9787 70.4805 26.192C70.8751 26.4054 71.3071 26.512 71.7765 26.512C72.2458 26.512 72.6778 26.4054 73.0725 26.192C73.4671 25.9787 73.7818 25.6534 74.0165 25.216C74.2618 24.7787 74.3845 24.2347 74.3845 23.584C74.3845 22.944 74.2618 22.4054 74.0165 21.968C73.7818 21.52 73.4671 21.1894 73.0725 20.976C72.6778 20.7627 72.2458 20.656 71.7765 20.656Z" fill="black"/>
<path d="M79.8341 20.912C80.1328 20.336 80.5594 19.8827 81.1141 19.552C81.6688 19.2107 82.3088 19.04 83.0341 19.04V21.024H82.4901C81.6901 21.024 81.0448 21.2214 80.5541 21.616C80.0741 22 79.8341 22.64 79.8341 23.536V28H78.0101V19.184H79.8341V20.912Z" fill="black"/>
<path d="M87.9367 19.072C88.7367 19.072 89.4194 19.2694 89.9847 19.664C90.55 20.0587 90.9447 20.5814 91.1687 21.232V16.16H93.0087V28H91.1687V25.952C90.9447 26.6027 90.55 27.1254 89.9847 27.52C89.4194 27.9147 88.7367 28.112 87.9367 28.112C87.1687 28.112 86.4807 27.9307 85.8727 27.568C85.2754 27.2054 84.806 26.6827 84.4647 26C84.1234 25.3174 83.9527 24.512 83.9527 23.584C83.9527 22.6667 84.1234 21.8667 84.4647 21.184C84.806 20.5014 85.2754 19.9787 85.8727 19.616C86.4807 19.2534 87.1687 19.072 87.9367 19.072ZM88.4967 20.672C87.6861 20.672 87.0354 20.9334 86.5447 21.456C86.0647 21.968 85.8247 22.6774 85.8247 23.584C85.8247 24.4907 86.0647 25.2054 86.5447 25.728C87.0354 26.24 87.6861 26.496 88.4967 26.496C89.0087 26.496 89.4674 26.3787 89.8727 26.144C90.278 25.8987 90.598 25.5574 90.8327 25.12C91.0674 24.6827 91.1847 24.1707 91.1847 23.584C91.1847 23.008 91.0674 22.5014 90.8327 22.064C90.598 21.616 90.278 21.2747 89.8727 21.04C89.4674 20.7947 89.0087 20.672 88.4967 20.672Z" fill="black"/>
<path d="M99.2296 19.072C100.083 19.072 100.851 19.2534 101.534 19.616C102.216 19.9787 102.75 20.5014 103.134 21.184C103.518 21.8667 103.71 22.6667 103.71 23.584C103.71 24.512 103.518 25.3174 103.134 26C102.75 26.6827 102.216 27.2054 101.534 27.568C100.851 27.9307 100.083 28.112 99.2296 28.112C98.3763 28.112 97.6083 27.9307 96.9256 27.568C96.2536 27.2054 95.7203 26.6827 95.3256 26C94.9416 25.3067 94.7496 24.5014 94.7496 23.584C94.7496 22.6667 94.9416 21.8667 95.3256 21.184C95.7203 20.5014 96.2536 19.9787 96.9256 19.616C97.6083 19.2534 98.3763 19.072 99.2296 19.072ZM99.2296 20.656C98.7603 20.656 98.3283 20.7627 97.9336 20.976C97.5389 21.1894 97.2189 21.52 96.9736 21.968C96.7389 22.4054 96.6216 22.944 96.6216 23.584C96.6216 24.2347 96.7389 24.7787 96.9736 25.216C97.2189 25.6534 97.5389 25.9787 97.9336 26.192C98.3283 26.4054 98.7603 26.512 99.2296 26.512C99.6989 26.512 100.131 26.4054 100.526 26.192C100.92 25.9787 101.235 25.6534 101.47 25.216C101.715 24.7787 101.838 24.2347 101.838 23.584C101.838 22.944 101.715 22.4054 101.47 21.968C101.235 21.52 100.92 21.1894 100.526 20.976C100.131 20.7627 99.6989 20.656 99.2296 20.656Z" fill="black"/>
<path d="M110.519 19.072C111.287 19.072 111.97 19.2534 112.567 19.616C113.175 19.9787 113.65 20.5014 113.991 21.184C114.333 21.8667 114.503 22.6667 114.503 23.584C114.503 24.512 114.333 25.3174 113.991 26C113.65 26.6827 113.175 27.2054 112.567 27.568C111.97 27.9307 111.287 28.112 110.519 28.112C109.719 28.112 109.037 27.9147 108.471 27.52C107.906 27.1254 107.511 26.6027 107.287 25.952V28H105.463V16.16H107.287V21.232C107.511 20.5814 107.906 20.0587 108.471 19.664C109.037 19.2694 109.719 19.072 110.519 19.072ZM109.959 20.672C109.447 20.672 108.989 20.7947 108.583 21.04C108.178 21.2747 107.858 21.616 107.623 22.064C107.389 22.5014 107.271 23.008 107.271 23.584C107.271 24.1707 107.389 24.6827 107.623 25.12C107.858 25.5574 108.178 25.8987 108.583 26.144C108.989 26.3787 109.447 26.496 109.959 26.496C110.77 26.496 111.421 26.24 111.911 25.728C112.402 25.2054 112.647 24.4907 112.647 23.584C112.647 22.688 112.402 21.9787 111.911 21.456C111.421 20.9334 110.77 20.672 109.959 20.672Z" fill="black"/>
<path d="M119.796 19.072C120.596 19.072 121.279 19.2694 121.844 19.664C122.409 20.0587 122.809 20.5814 123.044 21.232V19.184H124.868V28H123.044V25.952C122.809 26.6027 122.409 27.1254 121.844 27.52C121.279 27.9147 120.596 28.112 119.796 28.112C119.028 28.112 118.34 27.9307 117.732 27.568C117.135 27.2054 116.665 26.6827 116.324 26C115.983 25.3174 115.812 24.512 115.812 23.584C115.812 22.6667 115.983 21.8667 116.324 21.184C116.665 20.5014 117.135 19.9787 117.732 19.616C118.34 19.2534 119.028 19.072 119.796 19.072ZM120.356 20.672C119.545 20.672 118.895 20.9334 118.404 21.456C117.924 21.968 117.684 22.6774 117.684 23.584C117.684 24.4907 117.924 25.2054 118.404 25.728C118.895 26.24 119.545 26.496 120.356 26.496C120.868 26.496 121.327 26.3787 121.732 26.144C122.137 25.8987 122.457 25.5574 122.692 25.12C122.927 24.6827 123.044 24.1707 123.044 23.584C123.044 23.008 122.927 22.5014 122.692 22.064C122.457 21.616 122.137 21.2747 121.732 21.04C121.327 20.7947 120.868 20.672 120.356 20.672Z" fill="black"/>
</svg>
